<mxfile host="65bd71144e">
    <diagram id="N047zPK41V4IN6FB8gQ_" name="Page-1">
        <mxGraphModel dx="1678" dy="952" grid="1" gridSize="10" guides="1" tooltips="1" connect="1" arrows="1" fold="1" page="1" pageScale="1" pageWidth="850" pageHeight="1100" math="0" shadow="0">
            <root>
                <mxCell id="0"/>
                <mxCell id="1" parent="0"/>
                <mxCell id="4" value="项目相关方之间用于分享信息的沟通方法大致分为：" style="text;html=1;strokeColor=#6c8ebf;fillColor=#dae8fc;align=center;verticalAlign=middle;whiteSpace=wrap;rounded=0;" vertex="1" parent="1">
                    <mxGeometry x="10" y="20" width="280" height="30" as="geometry"/>
                </mxCell>
                <mxCell id="5" value="&lt;ul&gt;&lt;li&gt;互动沟通&lt;/li&gt;&lt;li&gt;推式沟通&lt;/li&gt;&lt;li&gt;拉式沟通&lt;/li&gt;&lt;/ul&gt;" style="text;strokeColor=none;fillColor=none;html=1;whiteSpace=wrap;verticalAlign=middle;overflow=hidden;" vertex="1" parent="1">
                    <mxGeometry x="10" y="40" width="100" height="80" as="geometry"/>
                </mxCell>
                <mxCell id="6" value="采用不同方法来实现沟通管理计划所规定的主要沟通需求：" style="text;html=1;strokeColor=#6c8ebf;fillColor=#dae8fc;align=center;verticalAlign=middle;whiteSpace=wrap;rounded=0;" vertex="1" parent="1">
                    <mxGeometry x="10" y="120" width="320" height="30" as="geometry"/>
                </mxCell>
                <mxCell id="7" value="&lt;ul&gt;&lt;li&gt;人际沟通&lt;/li&gt;&lt;li&gt;小组沟通&lt;/li&gt;&lt;li&gt;公众沟通&lt;/li&gt;&lt;li&gt;大众沟通&lt;/li&gt;&lt;li&gt;网络和社交工具沟通&lt;/li&gt;&lt;/ul&gt;" style="text;strokeColor=none;fillColor=none;html=1;whiteSpace=wrap;verticalAlign=middle;overflow=hidden;" vertex="1" parent="1">
                    <mxGeometry x="10" y="140" width="160" height="130" as="geometry"/>
                </mxCell>
                <mxCell id="8" value="可用的沟通弓箭和方法 （包括不限于）：" style="text;html=1;strokeColor=#6c8ebf;fillColor=#dae8fc;align=center;verticalAlign=middle;whiteSpace=wrap;rounded=0;" vertex="1" parent="1">
                    <mxGeometry x="10" y="260" width="230" height="30" as="geometry"/>
                </mxCell>
                <mxCell id="9" value="&lt;ul&gt;&lt;li&gt;公告板&lt;/li&gt;&lt;li&gt;新闻通讯、内部杂志、电子杂志&lt;/li&gt;&lt;li&gt;致员工或志愿者的信件&lt;/li&gt;&lt;li&gt;新闻稿&lt;/li&gt;&lt;li&gt;年度报告&lt;/li&gt;&lt;li&gt;电子邮件和内部局域网&lt;/li&gt;&lt;li&gt;门户网站和其他信息库（适用于拉式沟通）&lt;/li&gt;&lt;li&gt;电话交流&lt;/li&gt;&lt;li&gt;演示&lt;/li&gt;&lt;li&gt;团队简述或小组会议&lt;/li&gt;&lt;li&gt;焦点小组&lt;/li&gt;&lt;li&gt;相关方之间的正式或非正式的面对面会议&lt;/li&gt;&lt;li&gt;咨询小组或员工论坛&lt;/li&gt;&lt;li&gt;社交工具和媒体&lt;/li&gt;&lt;/ul&gt;" style="text;strokeColor=none;fillColor=none;html=1;whiteSpace=wrap;verticalAlign=middle;overflow=hidden;" vertex="1" parent="1">
                    <mxGeometry x="10" y="280" width="270" height="300" as="geometry"/>
                </mxCell>
            </root>
        </mxGraphModel>
    </diagram>
</mxfile>